{
  "title": "The Legend of Tarzan - 2016 - CAM - English - x264 - AAC - Makin",
  "uid": 15192382,
  "size": 732769057,
  "categoryP": "video",
  "categoryS": "movies",
  "magnet": "?xt=urn:btih:c3c1eb964a4a1dd1b5bf2dfb1fa683b29e1c8899&amp;dn=The+Legend+of+Tarzan+-+2016+-+CAM+-+English+-+x264+-+AAC+-+Makin&amp;tr=udp%3A%2F%2Ftracker.leechers-paradise.org%3A6969&amp;tr=udp%3A%2F%2Fzer0day.ch%3A1337&amp;tr=udp%3A%2F%2Fopen.demonii.com%3A1337&amp;tr=udp%3A%2F%2Ftracker.coppersurfer.tk%3A6969&amp;tr=udp%3A%2F%2Fexodus.desync.com%3A6969",
  "seeders": 55,
  "leechers": 9,
  "uploader": "makintos13",
  "files": 1,
  "time": 1467532472,
  "description": "The Legend of Tarzan - 2016 - CAM - English - x264 - AAC - Makintos13\r\n\r\nscreens:\r\n \nhttps://imgmak.com/Tqf\r\n\r\n \nhttps://imgmak.com/TqE\r\n\r\n \nhttps://imgmak.com/Tqh\r\n\r\n \nhttps://imgmak.com/Tql\r\n\r\n \nhttps://imgmak.com/TqV\r\n\r\n \nhttps://imgmak.com/Tqe\r\n\r\n \nhttps://imgmak.com/Tqg\r\n\r\n\r\n\r\nFormat                                   : Matroska\r\nFormat version                           : Version 4 / Version 2\r\nFile size                                : 699 MiB\r\nDuration                                 : 1h 39mn\r\nOverall bit rate                         : 979 Kbps\r\n\r\nVideo\r\nID                                       : 2\r\nFormat                                   : AVC\r\nFormat/Info                              : Advanced Video Codec\r\nFormat profile                           :   \r\nFormat settings, CABAC                   : Yes\r\nFormat settings, ReFrames                : 4 frames\r\nCodec ID                                 : V_MPEG4/ISO/AVC\r\nDuration                                 : 1h 39mn\r\nBit rate                                 : 912 Kbps\r\nWidth                                    : 720 pixels\r\nHeight                                   : 480 pixels\r\nDisplay aspect ratio                     : 3:2\r\nFrame rate mode                          : Constant\r\nFrame rate                               : 23.976 (24000/1001) fps\r\nColor space                              : YUV\r\nChroma subsampling                       : 4:2:0\r\nBit depth                                : 8 bits\r\nScan type                                : Progressive\r\nBits/(Pixel*Frame)                       : 0.110\r\nStream size                              : 651 MiB (93%)\r\nDefault                                  : Yes\r\nForced                                   : No\r\n\r\nAudio\r\nID                                       : 1\r\nFormat                                   : AAC\r\nFormat/Info                              : Advanced Audio Codec\r\nFormat profile                           : LC\r\nCodec ID                                 : A_AAC\r\nDuration                                 : 1h 39mn\r\nBit rate                                 : 64.4 Kbps\r\nChannel(s)                               : 2 channels\r\nChannel positions                        : Front: L R\r\nSampling rate                            : 48.0 KHz\r\nFrame rate                               : 46.875 fps (1024 spf)\r\nCompression mode                         : Lossy\r\nDelay relative to video                  : 62ms\r\nStream size                              : 46.0 MiB (7%)\r\nTitle                                    : Stereo\r\nDefault                                  : Yes\r\nForced                                   : No\r\n\r\nwww.imdb.com/title/tt0918940/",
  "parsed": {
    "xt": "urn:btih:c3c1eb964a4a1dd1b5bf2dfb1fa683b29e1c8899",
    "dn": "The Legend of Tarzan - 2016 - CAM - English - x264 - AAC - Makin",
    "tr": [
      "udp://exodus.desync.com:6969",
      "udp://open.demonii.com:1337",
      "udp://tracker.coppersurfer.tk:6969",
      "udp://tracker.leechers-paradise.org:6969",
      "udp://zer0day.ch:1337"
    ],
    "infoHash": "c3c1eb964a4a1dd1b5bf2dfb1fa683b29e1c8899",
    "infoHashBuffer": {
      "type": "Buffer",
      "data": [
        195,
        193,
        235,
        150,
        74,
        74,
        29,
        209,
        181,
        191,
        45,
        251,
        31,
        166,
        131,
        178,
        158,
        28,
        136,
        153
      ]
    },
    "name": "The Legend of Tarzan - 2016 - CAM - English - x264 - AAC - Makin",
    "announce": [
      "udp://exodus.desync.com:6969",
      "udp://open.demonii.com:1337",
      "udp://tracker.coppersurfer.tk:6969",
      "udp://tracker.leechers-paradise.org:6969",
      "udp://zer0day.ch:1337"
    ],
    "urlList": []
  },
  "previous": 64,
  "peers": 85,
  "last_updated": "2016-12-25T13:12:51.080Z"
}